<svg xmlns="http://www.w3.org/2000/svg" viewBox="0 0 1200 700" width="1200" height="700" role="img" aria-label="zaeux architecture">
<title>zaeux architecture</title>
<rect width="1200" height="700" fill="#141821"/>
<defs><linearGradient id="ga" x1="0" y1="0" x2="1" y2="1"><stop offset="0%" stop-color="#ffb703"/><stop offset="100%" stop-color="#8d99ae"/></linearGradient></defs><rect x="60.00" y="60.00" width="88.00" height="74.00" rx="1.20" fill="#eef1f6" opacity="0.05"/><rect x="158.00" y="60.00" width="88.00" height="74.00" rx="1.20" fill="#eef1f6" opacity="0.05"/><rect x="256.00" y="60.00" width="88.00" height="74.00" rx="1.20" fill="#eef1f6" opacity="0.05"/><rect x="354.00" y="60.00" width="88.00" height="74.00" rx="1.20" fill="#eef1f6" opacity="0.05"/><rect x="452.00" y="60.00" width="88.00" height="74.00" rx="1.20" fill="#eef1f6" opacity="0.05"/><rect x="550.00" y="60.00" width="88.00" height="74.00" rx="1.20" fill="#eef1f6" opacity="0.05"/><rect x="648.00" y="60.00" width="88.00" height="74.00" rx="1.20" fill="#eef1f6" opacity="0.05"/><rect x="746.00" y="60.00" width="88.00" height="74.00" rx="1.20" fill="#eef1f6" opacity="0.05"/><rect x="844.00" y="60.00" width="88.00" height="74.00" rx="1.20" fill="#eef1f6" opacity="0.05"/><rect x="942.00" y="60.00" width="88.00" height="74.00" rx="1.20" fill="#eef1f6" opacity="0.05"/><rect x="1040.00" y="60.00" width="88.00" height="74.00" rx="1.20" fill="#eef1f6" opacity="0.05"/><rect x="1138.00" y="60.00" width="88.00" height="74.00" rx="1.20" fill="#eef1f6" opacity="0.05"/><rect x="60.00" y="144.00" width="88.00" height="74.00" rx="1.20" fill="#eef1f6" opacity="0.05"/><rect x="158.00" y="144.00" width="88.00" height="74.00" rx="1.20" fill="#eef1f6" opacity="0.05"/><rect x="256.00" y="144.00" width="88.00" height="74.00" rx="1.20" fill="#eef1f6" opacity="0.05"/><rect x="354.00" y="144.00" width="88.00" height="74.00" rx="1.20" fill="#eef1f6" opacity="0.05"/><rect x="452.00" y="144.00" width="88.00" height="74.00" rx="1.20" fill="#eef1f6" opacity="0.05"/><rect x="550.00" y="144.00" width="88.00" height="74.00" rx="1.20" fill="#eef1f6" opacity="0.05"/><rect x="648.00" y="144.00" width="88.00" height="74.00" rx="1.20" fill="#eef1f6" opacity="0.05"/><rect x="746.00" y="144.00" width="88.00" height="74.00" rx="1.20" fill="#eef1f6" opacity="0.05"/><rect x="844.00" y="144.00" width="88.00" height="74.00" rx="1.20" fill="#eef1f6" opacity="0.05"/><rect x="942.00" y="144.00" width="88.00" height="74.00" rx="1.20" fill="#eef1f6" opacity="0.05"/><rect x="1040.00" y="144.00" width="88.00" height="74.00" rx="1.20" fill="#eef1f6" opacity="0.05"/><rect x="1138.00" y="144.00" width="88.00" height="74.00" rx="1.20" fill="#eef1f6" opacity="0.05"/><rect x="60.00" y="228.00" width="88.00" height="74.00" rx="1.20" fill="#eef1f6" opacity="0.05"/><rect x="158.00" y="228.00" width="88.00" height="74.00" rx="1.20" fill="#eef1f6" opacity="0.05"/><rect x="256.00" y="228.00" width="88.00" height="74.00" rx="1.20" fill="#eef1f6" opacity="0.05"/><rect x="354.00" y="228.00" width="88.00" height="74.00" rx="1.20" fill="#eef1f6" opacity="0.05"/><rect x="452.00" y="228.00" width="88.00" height="74.00" rx="1.20" fill="#eef1f6" opacity="0.05"/><rect x="550.00" y="228.00" width="88.00" height="74.00" rx="1.20" fill="#eef1f6" opacity="0.05"/><rect x="648.00" y="228.00" width="88.00" height="74.00" rx="1.20" fill="#eef1f6" opacity="0.05"/><rect x="746.00" y="228.00" width="88.00" height="74.00" rx="1.20" fill="#eef1f6" opacity="0.05"/><rect x="844.00" y="228.00" width="88.00" height="74.00" rx="1.20" fill="#eef1f6" opacity="0.05"/><rect x="942.00" y="228.00" width="88.00" height="74.00" rx="1.20" fill="#eef1f6" opacity="0.05"/><rect x="1040.00" y="228.00" width="88.00" height="74.00" rx="1.20" fill="#eef1f6" opacity="0.05"/><rect x="1138.00" y="228.00" width="88.00" height="74.00" rx="1.20" fill="#eef1f6" opacity="0.05"/><rect x="60.00" y="312.00" width="88.00" height="74.00" rx="1.20" fill="#eef1f6" opacity="0.05"/><rect x="158.00" y="312.00" width="88.00" height="74.00" rx="1.20" fill="#eef1f6" opacity="0.05"/><rect x="256.00" y="312.00" width="88.00" height="74.00" rx="1.20" fill="#eef1f6" opacity="0.05"/><rect x="354.00" y="312.00" width="88.00" height="74.00" rx="1.20" fill="#eef1f6" opacity="0.05"/><rect x="452.00" y="312.00" width="88.00" height="74.00" rx="1.20" fill="#eef1f6" opacity="0.05"/><rect x="550.00" y="312.00" width="88.00" height="74.00" rx="1.20" fill="#eef1f6" opacity="0.05"/><rect x="648.00" y="312.00" width="88.00" height="74.00" rx="1.20" fill="#eef1f6" opacity="0.05"/><rect x="746.00" y="312.00" width="88.00" height="74.00" rx="1.20" fill="#eef1f6" opacity="0.05"/><rect x="844.00" y="312.00" width="88.00" height="74.00" rx="1.20" fill="#eef1f6" opacity="0.05"/><rect x="942.00" y="312.00" width="88.00" height="74.00" rx="1.20" fill="#eef1f6" opacity="0.05"/><rect x="1040.00" y="312.00" width="88.00" height="74.00" rx="1.20" fill="#eef1f6" opacity="0.05"/><rect x="1138.00" y="312.00" width="88.00" height="74.00" rx="1.20" fill="#eef1f6" opacity="0.05"/><rect x="60.00" y="396.00" width="88.00" height="74.00" rx="1.20" fill="#eef1f6" opacity="0.05"/><rect x="158.00" y="396.00" width="88.00" height="74.00" rx="1.20" fill="#eef1f6" opacity="0.05"/><rect x="256.00" y="396.00" width="88.00" height="74.00" rx="1.20" fill="#eef1f6" opacity="0.05"/><rect x="354.00" y="396.00" width="88.00" height="74.00" rx="1.20" fill="#eef1f6" opacity="0.05"/><rect x="452.00" y="396.00" width="88.00" height="74.00" rx="1.20" fill="#eef1f6" opacity="0.05"/><rect x="550.00" y="396.00" width="88.00" height="74.00" rx="1.20" fill="#eef1f6" opacity="0.05"/><rect x="648.00" y="396.00" width="88.00" height="74.00" rx="1.20" fill="#eef1f6" opacity="0.05"/><rect x="746.00" y="396.00" width="88.00" height="74.00" rx="1.20" fill="#eef1f6" opacity="0.05"/><rect x="844.00" y="396.00" width="88.00" height="74.00" rx="1.20" fill="#eef1f6" opacity="0.05"/><rect x="942.00" y="396.00" width="88.00" height="74.00" rx="1.20" fill="#eef1f6" opacity="0.05"/><rect x="1040.00" y="396.00" width="88.00" height="74.00" rx="1.20" fill="#eef1f6" opacity="0.05"/><rect x="1138.00" y="396.00" width="88.00" height="74.00" rx="1.20" fill="#eef1f6" opacity="0.05"/><rect x="60.00" y="480.00" width="88.00" height="74.00" rx="1.20" fill="#eef1f6" opacity="0.05"/><rect x="158.00" y="480.00" width="88.00" height="74.00" rx="1.20" fill="#eef1f6" opacity="0.05"/><rect x="256.00" y="480.00" width="88.00" height="74.00" rx="1.20" fill="#eef1f6" opacity="0.05"/><rect x="354.00" y="480.00" width="88.00" height="74.00" rx="1.20" fill="#eef1f6" opacity="0.05"/><rect x="452.00" y="480.00" width="88.00" height="74.00" rx="1.20" fill="#eef1f6" opacity="0.05"/><rect x="550.00" y="480.00" width="88.00" height="74.00" rx="1.20" fill="#eef1f6" opacity="0.05"/><rect x="648.00" y="480.00" width="88.00" height="74.00" rx="1.20" fill="#eef1f6" opacity="0.05"/><rect x="746.00" y="480.00" width="88.00" height="74.00" rx="1.20" fill="#eef1f6" opacity="0.05"/><rect x="844.00" y="480.00" width="88.00" height="74.00" rx="1.20" fill="#eef1f6" opacity="0.05"/><rect x="942.00" y="480.00" width="88.00" height="74.00" rx="1.20" fill="#eef1f6" opacity="0.05"/><rect x="1040.00" y="480.00" width="88.00" height="74.00" rx="1.20" fill="#eef1f6" opacity="0.05"/><rect x="1138.00" y="480.00" width="88.00" height="74.00" rx="1.20" fill="#eef1f6" opacity="0.05"/><rect x="60.00" y="564.00" width="88.00" height="74.00" rx="1.20" fill="#eef1f6" opacity="0.05"/><rect x="158.00" y="564.00" width="88.00" height="74.00" rx="1.20" fill="#eef1f6" opacity="0.05"/><rect x="256.00" y="564.00" width="88.00" height="74.00" rx="1.20" fill="#eef1f6" opacity="0.05"/><rect x="354.00" y="564.00" width="88.00" height="74.00" rx="1.20" fill="#eef1f6" opacity="0.05"/><rect x="452.00" y="564.00" width="88.00" height="74.00" rx="1.20" fill="#eef1f6" opacity="0.05"/><rect x="550.00" y="564.00" width="88.00" height="74.00" rx="1.20" fill="#eef1f6" opacity="0.05"/><rect x="648.00" y="564.00" width="88.00" height="74.00" rx="1.20" fill="#eef1f6" opacity="0.05"/><rect x="746.00" y="564.00" width="88.00" height="74.00" rx="1.20" fill="#eef1f6" opacity="0.05"/><rect x="844.00" y="564.00" width="88.00" height="74.00" rx="1.20" fill="#eef1f6" opacity="0.05"/><rect x="942.00" y="564.00" width="88.00" height="74.00" rx="1.20" fill="#eef1f6" opacity="0.05"/><rect x="1040.00" y="564.00" width="88.00" height="74.00" rx="1.20" fill="#eef1f6" opacity="0.05"/><rect x="1138.00" y="564.00" width="88.00" height="74.00" rx="1.20" fill="#eef1f6" opacity="0.05"/><line x1="225.00" y1="184.00" x2="225.00" y2="390.00" stroke="rgba(238,241,246,0.160)" stroke-width="1.20" opacity="0.55" stroke-dasharray="3 7"/><line x1="475.00" y1="184.00" x2="225.00" y2="390.00" stroke="rgba(238,241,246,0.160)" stroke-width="1.20" opacity="0.55" stroke-dasharray="3 7"/><path d="M167.00,138.00 H283.00 L299.00,154.00 V218.00 L283.00,234.00 H167.00 L151.00,218.00 V154.00 Z" fill="none" stroke="rgba(255,183,3,0.550)" stroke-width="1.80" opacity="0.90"/><polygon points="7.79,166.50 44.17,187.50 44.17,145.50 7.79,124.50" fill="#037c5d" opacity="0.95"/><polygon points="-28.58,187.50 7.79,208.50 7.79,166.50 -28.58,145.50" fill="#6e7788" opacity="0.95"/><polygon points="7.79,124.50 44.17,145.50 7.79,166.50 -28.58,145.50" fill="#ffb703" opacity="0.95"/><text x="225" y="212" font-family="ui-monospace,Menlo,monospace" font-size="17" fill="rgba(238,241,246,0.900)" text-anchor="middle">app</text><path d="M417.00,138.00 H533.00 L549.00,154.00 V218.00 L533.00,234.00 H417.00 L401.00,218.00 V154.00 Z" fill="none" stroke="rgba(141,153,174,0.550)" stroke-width="1.80" opacity="0.90"/><polygon points="224.30,291.50 260.67,312.50 260.67,270.50 224.30,249.50" fill="#037c5d" opacity="0.95"/><polygon points="187.93,312.50 224.30,333.50 224.30,291.50 187.93,270.50" fill="#6e7788" opacity="0.95"/><polygon points="224.30,249.50 260.67,270.50 224.30,291.50 187.93,270.50" fill="#8d99ae" opacity="0.95"/><text x="475" y="212" font-family="ui-monospace,Menlo,monospace" font-size="17" fill="rgba(238,241,246,0.900)" text-anchor="middle">components</text><path d="M667.00,138.00 H783.00 L799.00,154.00 V218.00 L783.00,234.00 H667.00 L651.00,218.00 V154.00 Z" fill="none" stroke="rgba(6,214,160,0.550)" stroke-width="1.80" opacity="0.90"/><polygon points="440.81,416.50 477.18,437.50 477.18,395.50 440.81,374.50" fill="#037c5d" opacity="0.95"/><polygon points="404.43,437.50 440.81,458.50 440.81,416.50 404.43,395.50" fill="#6e7788" opacity="0.95"/><polygon points="440.81,374.50 477.18,395.50 440.81,416.50 404.43,395.50" fill="#06d6a0" opacity="0.95"/><text x="725" y="212" font-family="ui-monospace,Menlo,monospace" font-size="17" fill="rgba(238,241,246,0.900)" text-anchor="middle">lib</text><path d="M917.00,138.00 H1033.00 L1049.00,154.00 V218.00 L1033.00,234.00 H917.00 L901.00,218.00 V154.00 Z" fill="none" stroke="rgba(255,183,3,0.550)" stroke-width="1.80" opacity="0.90"/><polygon points="657.31,541.50 693.69,562.50 693.69,520.50 657.31,499.50" fill="#037c5d" opacity="0.95"/><polygon points="620.94,562.50 657.31,583.50 657.31,541.50 620.94,520.50" fill="#6e7788" opacity="0.95"/><polygon points="657.31,499.50 693.69,520.50 657.31,541.50 620.94,520.50" fill="#ffb703" opacity="0.95"/><text x="975" y="212" font-family="ui-monospace,Menlo,monospace" font-size="17" fill="rgba(238,241,246,0.900)" text-anchor="middle">src</text><path d="M167.00,344.00 H283.00 L299.00,360.00 V424.00 L283.00,440.00 H167.00 L151.00,424.00 V360.00 Z" fill="none" stroke="rgba(141,153,174,0.550)" stroke-width="1.80" opacity="0.90"/><polygon points="-170.61,269.50 -134.23,290.50 -134.23,248.50 -170.61,227.50" fill="#037c5d" opacity="0.95"/><polygon points="-206.98,290.50 -170.61,311.50 -170.61,269.50 -206.98,248.50" fill="#6e7788" opacity="0.95"/><polygon points="-170.61,227.50 -134.23,248.50 -170.61,269.50 -206.98,248.50" fill="#8d99ae" opacity="0.95"/><text x="225" y="418" font-family="ui-monospace,Menlo,monospace" font-size="17" fill="rgba(238,241,246,0.900)" text-anchor="middle">types</text><text x="100" y="112" font-family="ui-monospace,Menlo,monospace" font-size="15" fill="rgba(238,241,246,0.500)">5 top-level module boundaries: app, components, lib,</text>
</svg>