<svg xmlns="http://www.w3.org/2000/svg" viewBox="0 0 1200 700" width="1200" height="700" role="img" aria-label="zaeux architecture">
<title>zaeux architecture</title>
<rect width="1200" height="700" fill="#fef8ec"/>
<defs><linearGradient id="ga" x1="0" y1="0" x2="1" y2="1"><stop offset="0%" stop-color="#c78f02"/><stop offset="100%" stop-color="#6e7788"/></linearGradient></defs><rect x="60.00" y="60.00" width="88.00" height="74.00" rx="1.20" fill="#252831" opacity="0.05"/><rect x="158.00" y="60.00" width="88.00" height="74.00" rx="1.20" fill="#252831" opacity="0.05"/><rect x="256.00" y="60.00" width="88.00" height="74.00" rx="1.20" fill="#252831" opacity="0.05"/><rect x="354.00" y="60.00" width="88.00" height="74.00" rx="1.20" fill="#252831" opacity="0.05"/><rect x="452.00" y="60.00" width="88.00" height="74.00" rx="1.20" fill="#252831" opacity="0.05"/><rect x="550.00" y="60.00" width="88.00" height="74.00" rx="1.20" fill="#252831" opacity="0.05"/><rect x="648.00" y="60.00" width="88.00" height="74.00" rx="1.20" fill="#252831" opacity="0.05"/><rect x="746.00" y="60.00" width="88.00" height="74.00" rx="1.20" fill="#252831" opacity="0.05"/><rect x="844.00" y="60.00" width="88.00" height="74.00" rx="1.20" fill="#252831" opacity="0.05"/><rect x="942.00" y="60.00" width="88.00" height="74.00" rx="1.20" fill="#252831" opacity="0.05"/><rect x="1040.00" y="60.00" width="88.00" height="74.00" rx="1.20" fill="#252831" opacity="0.05"/><rect x="1138.00" y="60.00" width="88.00" height="74.00" rx="1.20" fill="#252831" opacity="0.05"/><rect x="60.00" y="144.00" width="88.00" height="74.00" rx="1.20" fill="#252831" opacity="0.05"/><rect x="158.00" y="144.00" width="88.00" height="74.00" rx="1.20" fill="#252831" opacity="0.05"/><rect x="256.00" y="144.00" width="88.00" height="74.00" rx="1.20" fill="#252831" opacity="0.05"/><rect x="354.00" y="144.00" width="88.00" height="74.00" rx="1.20" fill="#252831" opacity="0.05"/><rect x="452.00" y="144.00" width="88.00" height="74.00" rx="1.20" fill="#252831" opacity="0.05"/><rect x="550.00" y="144.00" width="88.00" height="74.00" rx="1.20" fill="#252831" opacity="0.05"/><rect x="648.00" y="144.00" width="88.00" height="74.00" rx="1.20" fill="#252831" opacity="0.05"/><rect x="746.00" y="144.00" width="88.00" height="74.00" rx="1.20" fill="#252831" opacity="0.05"/><rect x="844.00" y="144.00" width="88.00" height="74.00" rx="1.20" fill="#252831" opacity="0.05"/><rect x="942.00" y="144.00" width="88.00" height="74.00" rx="1.20" fill="#252831" opacity="0.05"/><rect x="1040.00" y="144.00" width="88.00" height="74.00" rx="1.20" fill="#252831" opacity="0.05"/><rect x="1138.00" y="144.00" width="88.00" height="74.00" rx="1.20" fill="#252831" opacity="0.05"/><rect x="60.00" y="228.00" width="88.00" height="74.00" rx="1.20" fill="#252831" opacity="0.05"/><rect x="158.00" y="228.00" width="88.00" height="74.00" rx="1.20" fill="#252831" opacity="0.05"/><rect x="256.00" y="228.00" width="88.00" height="74.00" rx="1.20" fill="#252831" opacity="0.05"/><rect x="354.00" y="228.00" width="88.00" height="74.00" rx="1.20" fill="#252831" opacity="0.05"/><rect x="452.00" y="228.00" width="88.00" height="74.00" rx="1.20" fill="#252831" opacity="0.05"/><rect x="550.00" y="228.00" width="88.00" height="74.00" rx="1.20" fill="#252831" opacity="0.05"/><rect x="648.00" y="228.00" width="88.00" height="74.00" rx="1.20" fill="#252831" opacity="0.05"/><rect x="746.00" y="228.00" width="88.00" height="74.00" rx="1.20" fill="#252831" opacity="0.05"/><rect x="844.00" y="228.00" width="88.00" height="74.00" rx="1.20" fill="#252831" opacity="0.05"/><rect x="942.00" y="228.00" width="88.00" height="74.00" rx="1.20" fill="#252831" opacity="0.05"/><rect x="1040.00" y="228.00" width="88.00" height="74.00" rx="1.20" fill="#252831" opacity="0.05"/><rect x="1138.00" y="228.00" width="88.00" height="74.00" rx="1.20" fill="#252831" opacity="0.05"/><rect x="60.00" y="312.00" width="88.00" height="74.00" rx="1.20" fill="#252831" opacity="0.05"/><rect x="158.00" y="312.00" width="88.00" height="74.00" rx="1.20" fill="#252831" opacity="0.05"/><rect x="256.00" y="312.00" width="88.00" height="74.00" rx="1.20" fill="#252831" opacity="0.05"/><rect x="354.00" y="312.00" width="88.00" height="74.00" rx="1.20" fill="#252831" opacity="0.05"/><rect x="452.00" y="312.00" width="88.00" height="74.00" rx="1.20" fill="#252831" opacity="0.05"/><rect x="550.00" y="312.00" width="88.00" height="74.00" rx="1.20" fill="#252831" opacity="0.05"/><rect x="648.00" y="312.00" width="88.00" height="74.00" rx="1.20" fill="#252831" opacity="0.05"/><rect x="746.00" y="312.00" width="88.00" height="74.00" rx="1.20" fill="#252831" opacity="0.05"/><rect x="844.00" y="312.00" width="88.00" height="74.00" rx="1.20" fill="#252831" opacity="0.05"/><rect x="942.00" y="312.00" width="88.00" height="74.00" rx="1.20" fill="#252831" opacity="0.05"/><rect x="1040.00" y="312.00" width="88.00" height="74.00" rx="1.20" fill="#252831" opacity="0.05"/><rect x="1138.00" y="312.00" width="88.00" height="74.00" rx="1.20" fill="#252831" opacity="0.05"/><rect x="60.00" y="396.00" width="88.00" height="74.00" rx="1.20" fill="#252831" opacity="0.05"/><rect x="158.00" y="396.00" width="88.00" height="74.00" rx="1.20" fill="#252831" opacity="0.05"/><rect x="256.00" y="396.00" width="88.00" height="74.00" rx="1.20" fill="#252831" opacity="0.05"/><rect x="354.00" y="396.00" width="88.00" height="74.00" rx="1.20" fill="#252831" opacity="0.05"/><rect x="452.00" y="396.00" width="88.00" height="74.00" rx="1.20" fill="#252831" opacity="0.05"/><rect x="550.00" y="396.00" width="88.00" height="74.00" rx="1.20" fill="#252831" opacity="0.05"/><rect x="648.00" y="396.00" width="88.00" height="74.00" rx="1.20" fill="#252831" opacity="0.05"/><rect x="746.00" y="396.00" width="88.00" height="74.00" rx="1.20" fill="#252831" opacity="0.05"/><rect x="844.00" y="396.00" width="88.00" height="74.00" rx="1.20" fill="#252831" opacity="0.05"/><rect x="942.00" y="396.00" width="88.00" height="74.00" rx="1.20" fill="#252831" opacity="0.05"/><rect x="1040.00" y="396.00" width="88.00" height="74.00" rx="1.20" fill="#252831" opacity="0.05"/><rect x="1138.00" y="396.00" width="88.00" height="74.00" rx="1.20" fill="#252831" opacity="0.05"/><rect x="60.00" y="480.00" width="88.00" height="74.00" rx="1.20" fill="#252831" opacity="0.05"/><rect x="158.00" y="480.00" width="88.00" height="74.00" rx="1.20" fill="#252831" opacity="0.05"/><rect x="256.00" y="480.00" width="88.00" height="74.00" rx="1.20" fill="#252831" opacity="0.05"/><rect x="354.00" y="480.00" width="88.00" height="74.00" rx="1.20" fill="#252831" opacity="0.05"/><rect x="452.00" y="480.00" width="88.00" height="74.00" rx="1.20" fill="#252831" opacity="0.05"/><rect x="550.00" y="480.00" width="88.00" height="74.00" rx="1.20" fill="#252831" opacity="0.05"/><rect x="648.00" y="480.00" width="88.00" height="74.00" rx="1.20" fill="#252831" opacity="0.05"/><rect x="746.00" y="480.00" width="88.00" height="74.00" rx="1.20" fill="#252831" opacity="0.05"/><rect x="844.00" y="480.00" width="88.00" height="74.00" rx="1.20" fill="#252831" opacity="0.05"/><rect x="942.00" y="480.00" width="88.00" height="74.00" rx="1.20" fill="#252831" opacity="0.05"/><rect x="1040.00" y="480.00" width="88.00" height="74.00" rx="1.20" fill="#252831" opacity="0.05"/><rect x="1138.00" y="480.00" width="88.00" height="74.00" rx="1.20" fill="#252831" opacity="0.05"/><rect x="60.00" y="564.00" width="88.00" height="74.00" rx="1.20" fill="#252831" opacity="0.05"/><rect x="158.00" y="564.00" width="88.00" height="74.00" rx="1.20" fill="#252831" opacity="0.05"/><rect x="256.00" y="564.00" width="88.00" height="74.00" rx="1.20" fill="#252831" opacity="0.05"/><rect x="354.00" y="564.00" width="88.00" height="74.00" rx="1.20" fill="#252831" opacity="0.05"/><rect x="452.00" y="564.00" width="88.00" height="74.00" rx="1.20" fill="#252831" opacity="0.05"/><rect x="550.00" y="564.00" width="88.00" height="74.00" rx="1.20" fill="#252831" opacity="0.05"/><rect x="648.00" y="564.00" width="88.00" height="74.00" rx="1.20" fill="#252831" opacity="0.05"/><rect x="746.00" y="564.00" width="88.00" height="74.00" rx="1.20" fill="#252831" opacity="0.05"/><rect x="844.00" y="564.00" width="88.00" height="74.00" rx="1.20" fill="#252831" opacity="0.05"/><rect x="942.00" y="564.00" width="88.00" height="74.00" rx="1.20" fill="#252831" opacity="0.05"/><rect x="1040.00" y="564.00" width="88.00" height="74.00" rx="1.20" fill="#252831" opacity="0.05"/><rect x="1138.00" y="564.00" width="88.00" height="74.00" rx="1.20" fill="#252831" opacity="0.05"/><line x1="225.00" y1="184.00" x2="225.00" y2="390.00" stroke="rgba(37,40,49,0.160)" stroke-width="1.20" opacity="0.55" stroke-dasharray="3 7"/><line x1="475.00" y1="184.00" x2="225.00" y2="390.00" stroke="rgba(37,40,49,0.160)" stroke-width="1.20" opacity="0.55" stroke-dasharray="3 7"/><path d="M167.00,138.00 H283.00 L299.00,154.00 V218.00 L283.00,234.00 H167.00 L151.00,218.00 V154.00 Z" fill="none" stroke="rgba(199,143,2,0.550)" stroke-width="1.80" opacity="0.90"/><polygon points="7.79,166.50 44.17,187.50 44.17,145.50 7.79,124.50" fill="#036148" opacity="0.95"/><polygon points="-28.58,187.50 7.79,208.50 7.79,166.50 -28.58,145.50" fill="#565d6a" opacity="0.95"/><polygon points="7.79,124.50 44.17,145.50 7.79,166.50 -28.58,145.50" fill="#c78f02" opacity="0.95"/><text x="225" y="212" font-family="ui-monospace,Menlo,monospace" font-size="17" fill="rgba(37,40,49,0.900)" text-anchor="middle">app</text><g><path d="M167.00,138.00 H283.00 L299.00,154.00 V218.00 L283.00,234.00 H167.00 L151.00,218.00 V154.00 Z" fill="none" stroke="#6e7788" stroke-width="2.40" opacity="0.90"/><animate attributeName="opacity" values="0.25;1.0;0.25" dur="19.9s" begin="0.0s" repeatCount="indefinite" /></g><g opacity="0.9"><circle cx="0.00" cy="0.00" r="4.50" fill="#05a77d" opacity="1.00"/><animateTransform attributeName="transform" type="translate" values="225.00,184.00 475.00,184.00" dur="6.633333333333333s" begin="0.0s" repeatCount="indefinite" /><animateTransform attributeName="transform" type="translate" values="475.00,184.00 225.00,184.00" dur="6.633333333333333s" begin="3.3166666666666664s" repeatCount="indefinite" /></g><path d="M417.00,138.00 H533.00 L549.00,154.00 V218.00 L533.00,234.00 H417.00 L401.00,218.00 V154.00 Z" fill="none" stroke="rgba(110,119,136,0.550)" stroke-width="1.80" opacity="0.90"/><polygon points="224.30,291.50 260.67,312.50 260.67,270.50 224.30,249.50" fill="#036148" opacity="0.95"/><polygon points="187.93,312.50 224.30,333.50 224.30,291.50 187.93,270.50" fill="#565d6a" opacity="0.95"/><polygon points="224.30,249.50 260.67,270.50 224.30,291.50 187.93,270.50" fill="#6e7788" opacity="0.95"/><text x="475" y="212" font-family="ui-monospace,Menlo,monospace" font-size="17" fill="rgba(37,40,49,0.900)" text-anchor="middle">components</text><g><path d="M417.00,138.00 H533.00 L549.00,154.00 V218.00 L533.00,234.00 H417.00 L401.00,218.00 V154.00 Z" fill="none" stroke="#6e7788" stroke-width="2.40" opacity="0.90"/><animate attributeName="opacity" values="0.25;1.0;0.25" dur="19.9s" begin="0.45s" repeatCount="indefinite" /></g><g opacity="0.9"><circle cx="0.00" cy="0.00" r="4.50" fill="#05a77d" opacity="1.00"/><animateTransform attributeName="transform" type="translate" values="475.00,184.00 725.00,184.00" dur="6.633333333333333s" begin="0.3s" repeatCount="indefinite" /><animateTransform attributeName="transform" type="translate" values="725.00,184.00 475.00,184.00" dur="6.633333333333333s" begin="3.6166666666666663s" repeatCount="indefinite" /></g><path d="M667.00,138.00 H783.00 L799.00,154.00 V218.00 L783.00,234.00 H667.00 L651.00,218.00 V154.00 Z" fill="none" stroke="rgba(5,167,125,0.550)" stroke-width="1.80" opacity="0.90"/><polygon points="440.81,416.50 477.18,437.50 477.18,395.50 440.81,374.50" fill="#036148" opacity="0.95"/><polygon points="404.43,437.50 440.81,458.50 440.81,416.50 404.43,395.50" fill="#565d6a" opacity="0.95"/><polygon points="440.81,374.50 477.18,395.50 440.81,416.50 404.43,395.50" fill="#05a77d" opacity="0.95"/><text x="725" y="212" font-family="ui-monospace,Menlo,monospace" font-size="17" fill="rgba(37,40,49,0.900)" text-anchor="middle">lib</text><g><path d="M667.00,138.00 H783.00 L799.00,154.00 V218.00 L783.00,234.00 H667.00 L651.00,218.00 V154.00 Z" fill="none" stroke="#6e7788" stroke-width="2.40" opacity="0.90"/><animate attributeName="opacity" values="0.25;1.0;0.25" dur="19.9s" begin="0.9s" repeatCount="indefinite" /></g><g opacity="0.9"><circle cx="0.00" cy="0.00" r="4.50" fill="#05a77d" opacity="1.00"/><animateTransform attributeName="transform" type="translate" values="725.00,184.00 975.00,184.00" dur="6.633333333333333s" begin="0.6s" repeatCount="indefinite" /><animateTransform attributeName="transform" type="translate" values="975.00,184.00 725.00,184.00" dur="6.633333333333333s" begin="3.9166666666666665s" repeatCount="indefinite" /></g><path d="M917.00,138.00 H1033.00 L1049.00,154.00 V218.00 L1033.00,234.00 H917.00 L901.00,218.00 V154.00 Z" fill="none" stroke="rgba(199,143,2,0.550)" stroke-width="1.80" opacity="0.90"/><polygon points="657.31,541.50 693.69,562.50 693.69,520.50 657.31,499.50" fill="#036148" opacity="0.95"/><polygon points="620.94,562.50 657.31,583.50 657.31,541.50 620.94,520.50" fill="#565d6a" opacity="0.95"/><polygon points="657.31,499.50 693.69,520.50 657.31,541.50 620.94,520.50" fill="#c78f02" opacity="0.95"/><text x="975" y="212" font-family="ui-monospace,Menlo,monospace" font-size="17" fill="rgba(37,40,49,0.900)" text-anchor="middle">src</text><g><path d="M917.00,138.00 H1033.00 L1049.00,154.00 V218.00 L1033.00,234.00 H917.00 L901.00,218.00 V154.00 Z" fill="none" stroke="#6e7788" stroke-width="2.40" opacity="0.90"/><animate attributeName="opacity" values="0.25;1.0;0.25" dur="19.9s" begin="1.35s" repeatCount="indefinite" /></g><g opacity="0.9"><circle cx="0.00" cy="0.00" r="4.50" fill="#05a77d" opacity="1.00"/><animateTransform attributeName="transform" type="translate" values="975.00,184.00 225.00,390.00" dur="6.633333333333333s" begin="0.8999999999999999s" repeatCount="indefinite" /><animateTransform attributeName="transform" type="translate" values="225.00,390.00 975.00,184.00" dur="6.633333333333333s" begin="4.216666666666667s" repeatCount="indefinite" /></g><path d="M167.00,344.00 H283.00 L299.00,360.00 V424.00 L283.00,440.00 H167.00 L151.00,424.00 V360.00 Z" fill="none" stroke="rgba(110,119,136,0.550)" stroke-width="1.80" opacity="0.90"/><polygon points="-170.61,269.50 -134.23,290.50 -134.23,248.50 -170.61,227.50" fill="#036148" opacity="0.95"/><polygon points="-206.98,290.50 -170.61,311.50 -170.61,269.50 -206.98,248.50" fill="#565d6a" opacity="0.95"/><polygon points="-170.61,227.50 -134.23,248.50 -170.61,269.50 -206.98,248.50" fill="#6e7788" opacity="0.95"/><text x="225" y="418" font-family="ui-monospace,Menlo,monospace" font-size="17" fill="rgba(37,40,49,0.900)" text-anchor="middle">types</text><g><path d="M167.00,344.00 H283.00 L299.00,360.00 V424.00 L283.00,440.00 H167.00 L151.00,424.00 V360.00 Z" fill="none" stroke="#6e7788" stroke-width="2.40" opacity="0.90"/><animate attributeName="opacity" values="0.25;1.0;0.25" dur="19.9s" begin="1.8s" repeatCount="indefinite" /></g><g opacity="0.9"><circle cx="0.00" cy="0.00" r="4.50" fill="#05a77d" opacity="1.00"/><animateTransform attributeName="transform" type="translate" values="225.00,390.00 225.00,390.00" dur="6.633333333333333s" begin="1.2s" repeatCount="indefinite" /><animateTransform attributeName="transform" type="translate" values="225.00,390.00 225.00,390.00" dur="6.633333333333333s" begin="4.516666666666667s" repeatCount="indefinite" /></g><text x="100" y="112" font-family="ui-monospace,Menlo,monospace" font-size="15" fill="rgba(37,40,49,0.500)">5 top-level module boundaries: app, components, lib,</text>
</svg>