<svg xmlns="http://www.w3.org/2000/svg" width="900" height="470" viewBox="0 0 900 470" role="img" aria-label="zaeux - how it is built"><linearGradient id="skya" x1="0" y1="0" x2="0" y2="1"><stop offset="0" stop-color="#959494"/><stop offset="0.62" stop-color="#b0aba4"/><stop offset="1" stop-color="#f3ad8a"/></linearGradient><rect width="900" height="470" fill="url(#skya)"/><radialGradient id="suna"><stop offset="0.35" stop-color="#f5c95c" stop-opacity="0.34"/><stop offset="1" stop-color="#f5c95c" stop-opacity="0"/></radialGradient><circle cx="752" cy="92" r="104" fill="url(#suna)"/><circle cx="752" cy="92" r="40" fill="#f5c95c"/><circle cx="743.2" cy="81.6" r="24" fill="#f5d27e" opacity="0.5"/><g><circle cx="524" cy="66" r="17.64" fill="#f6e7ce"/><circle cx="506.36" cy="71.04" r="13.44" fill="#f6e7ce"/><circle cx="542.48" cy="70.2" r="12.6" fill="#f6e7ce"/><rect x="493.76" y="69.36" width="62.16" height="10.92" rx="5.46" fill="#f6e7ce"/><animateTransform attributeName="transform" type="translate" values="0 0;24 0;0 0" dur="36s" begin="0s" repeatCount="indefinite"/></g><g><circle cx="660" cy="40" r="12.6" fill="#f6e7ce"/><circle cx="647.4" cy="43.6" r="9.6" fill="#f6e7ce"/><circle cx="673.2" cy="43" r="9" fill="#f6e7ce"/><rect x="638.4" y="42.4" width="44.4" height="7.8" rx="3.9" fill="#f6e7ce"/><animateTransform attributeName="transform" type="translate" values="0 0;-18 0;0 0" dur="46s" begin="3s" repeatCount="indefinite"/></g><rect x="0" y="352" width="900" height="118" fill="#e9cda3"/><rect x="0" y="352" width="900" height="3" fill="#ebd1a9"/><text x="44" y="62" font-family="Verdana,DejaVu Sans,sans-serif" font-size="30" font-weight="700" letter-spacing="0.6" fill="#1b2a4a" text-anchor="start">zaeux</text><text x="46" y="88" font-family="Verdana,DejaVu Sans,sans-serif" font-size="14" font-weight="700" letter-spacing="0.6" fill="#894b3f" text-anchor="start">MODULE ROOTS</text><rect x="44" y="106" width="74" height="4" rx="2" fill="#f5c95c"/><text x="132" y="112" font-family="Verdana,DejaVu Sans,sans-serif" font-size="13" font-weight="700" letter-spacing="0.6" fill="#894b3f" text-anchor="start">5 modules</text><ellipse cx="250" cy="358" rx="170" ry="22" fill="rgba(138,90,68,0.11)"/><path d="M112,315.2 L380,315.2 L398,297.2 L130,297.2 Z" fill="#eaa28b" stroke="#e78f78" stroke-width="5" stroke-linejoin="round"/><path d="M380,315.2 L398,297.2 L398,336 L380,354 Z" fill="#c47e70" stroke="#e78f78" stroke-width="5" stroke-linejoin="round"/><rect x="112" y="315.2" width="268" height="38.8" rx="6" fill="#e78f78"/><path d="M130.76,278.4 L361.24,278.4 L379.24,260.4 L148.76,260.4 Z" fill="#ea9e86" stroke="#e68972" stroke-width="5" stroke-linejoin="round"/><path d="M361.24,278.4 L379.24,260.4 L379.24,299.2 L361.24,317.2 Z" fill="#c3796b" stroke="#e68972" stroke-width="5" stroke-linejoin="round"/><rect x="130.76" y="278.4" width="230.48" height="38.8" rx="6" fill="#e68972"/><path d="M149.52,241.6 L342.48,241.6 L360.48,223.6 L167.52,223.6 Z" fill="#e99a82" stroke="#e5846c" stroke-width="5" stroke-linejoin="round"/><path d="M342.48,241.6 L360.48,223.6 L360.48,262.4 L342.48,280.4 Z" fill="#c37566" stroke="#e5846c" stroke-width="5" stroke-linejoin="round"/><rect x="149.52" y="241.6" width="192.96" height="38.8" rx="6" fill="#e5846c"/><path d="M168.28,204.8 L323.72,204.8 L341.72,186.8 L186.28,186.8 Z" fill="#e8957d" stroke="#e47e66" stroke-width="5" stroke-linejoin="round"/><path d="M323.72,204.8 L341.72,186.8 L341.72,225.6 L323.72,243.6 Z" fill="#c27061" stroke="#e47e66" stroke-width="5" stroke-linejoin="round"/><rect x="168.28" y="204.8" width="155.44" height="38.8" rx="6" fill="#e47e66"/><path d="M187.04,168 L304.96,168 L322.96,150 L205.04,150 Z" fill="#e79079" stroke="#e37861" stroke-width="5" stroke-linejoin="round"/><path d="M304.96,168 L322.96,150 L322.96,188.8 L304.96,206.8 Z" fill="#c16b5d" stroke="#e37861" stroke-width="5" stroke-linejoin="round"/><rect x="187.04" y="168" width="117.92" height="38.8" rx="6" fill="#e37861"/><rect x="140" y="196" width="150" height="26" rx="8" fill="rgba(246,231,206,0.16)" opacity="0.94"/><g><text x="150" y="215" font-family="Verdana,DejaVu Sans,sans-serif" font-size="12" font-weight="700" letter-spacing="0.6" fill="#1b2a4a" text-anchor="start">app</text><animateTransform attributeName="transform" type="translate" values="0 10;0 0" dur="0.7s" begin="0.3s" fill="freeze"/></g><rect x="140" y="234" width="150" height="26" rx="8" fill="rgba(246,231,206,0.16)" opacity="0.94"/><g><text x="150" y="253" font-family="Verdana,DejaVu Sans,sans-serif" font-size="12" font-weight="700" letter-spacing="0.6" fill="#1b2a4a" text-anchor="start">components</text><animateTransform attributeName="transform" type="translate" values="0 10;0 0" dur="0.7s" begin="0.5s" fill="freeze"/></g><rect x="140" y="272" width="150" height="26" rx="8" fill="rgba(246,231,206,0.16)" opacity="0.94"/><g><text x="150" y="291" font-family="Verdana,DejaVu Sans,sans-serif" font-size="12" font-weight="700" letter-spacing="0.6" fill="#1b2a4a" text-anchor="start">lib</text><animateTransform attributeName="transform" type="translate" values="0 10;0 0" dur="0.7s" begin="0.7s" fill="freeze"/></g><rect x="140" y="310" width="150" height="26" rx="8" fill="rgba(246,231,206,0.16)" opacity="0.94"/><g><text x="150" y="329" font-family="Verdana,DejaVu Sans,sans-serif" font-size="12" font-weight="700" letter-spacing="0.6" fill="#1b2a4a" text-anchor="start">src</text><animateTransform attributeName="transform" type="translate" values="0 10;0 0" dur="0.7s" begin="0.9s" fill="freeze"/></g><path d="M430,352 L430,252.64 A69,69 0 0 1 568,252.64 L568,352 Z M460.36,348 L460.36,249.55 A38.64,38.64 0 0 1 537.64,249.55 L537.64,348 Z" fill="#e3c08d" fill-rule="evenodd" stroke="#e3c08d" stroke-width="5" stroke-linejoin="round"/><path d="M430,352 L430,252.64 A69,69 0 0 1 568,252.64 L568,352 Z" fill="none" stroke="#e8c99d" stroke-width="7" stroke-linecap="round" opacity="0.85"/><rect x="436.9" y="252.64" width="6.9" height="99.36" fill="#c7ab84"/><rect x="630.78" y="329.28" width="10.44" height="22.72" rx="2.9" fill="#ac5b43"/><path d="M636,269.64 Q607,304.23 607,318.54 Q607,329.28 607,329.28 L665,329.28 Q665,329.28 665,318.54 Q665,304.23 636,269.64 Z" fill="#74a6a0"/><path d="M636,229.88 Q614.54,264.47 614.54,278.78 Q614.54,289.52 614.54,289.52 L657.46,289.52 Q657.46,289.52 657.46,278.78 Q657.46,264.47 636,229.88 Z" fill="#649f9a"/><path d="M636,190.12 Q622.08,224.71 622.08,239.02 Q622.08,249.76 622.08,249.76 L649.92,249.76 Q649.92,249.76 649.92,239.02 Q649.92,224.71 636,190.12 Z" fill="#589694"/><circle cx="722" cy="330" r="24" fill="#5b9a97"/><circle cx="714.8" cy="321.84" r="10.08" fill="#7aa9a2" opacity="0.55"/><rect x="778" y="300" width="46" height="52" rx="15.33" fill="#e2725b"/><ellipse cx="801" cy="300" rx="23" ry="10.4" fill="#e68c74"/><rect x="778" y="341.6" width="46" height="10.4" fill="#c66859"/><rect x="0" y="418" width="900" height="52" rx="0" fill="#e68972" opacity="0.94"/><text x="44" y="460" font-family="Verdana,DejaVu Sans,sans-serif" font-size="15" font-weight="700" letter-spacing="0.6" fill="#1b2a4a" text-anchor="start">DUNG30N5 x NOAERTH  /  Web Application</text><text x="856" y="460" font-family="Verdana,DejaVu Sans,sans-serif" font-size="13" font-weight="700" letter-spacing="0.6" fill="#1b2a4a" text-anchor="end">PROTOTYPE  -  evidence E3</text></svg>