<svg xmlns="http://www.w3.org/2000/svg" width="900" height="470" viewBox="0 0 900 470" role="img" aria-label="zaeux - how data moves"><linearGradient id="skyd" x1="0" y1="0" x2="0" y2="1"><stop offset="0" stop-color="#1b2a4a"/><stop offset="0.62" stop-color="#1b2a4a"/><stop offset="1" stop-color="#f3ad8a"/></linearGradient><rect width="900" height="470" fill="url(#skyd)"/><radialGradient id="sund"><stop offset="0.35" stop-color="#f5c95c" stop-opacity="0.34"/><stop offset="1" stop-color="#f5c95c" stop-opacity="0"/></radialGradient><circle cx="752" cy="92" r="104" fill="url(#sund)"/><circle cx="752" cy="92" r="40" fill="#f5c95c"/><circle cx="743.2" cy="81.6" r="24" fill="#f5d27e" opacity="0.5"/><g><circle cx="524" cy="66" r="17.64" fill="#f6e7ce"/><circle cx="506.36" cy="71.04" r="13.44" fill="#f6e7ce"/><circle cx="542.48" cy="70.2" r="12.6" fill="#f6e7ce"/><rect x="493.76" y="69.36" width="62.16" height="10.92" rx="5.46" fill="#f6e7ce"/></g><g><circle cx="660" cy="40" r="12.6" fill="#f6e7ce"/><circle cx="647.4" cy="43.6" r="9.6" fill="#f6e7ce"/><circle cx="673.2" cy="43" r="9" fill="#f6e7ce"/><rect x="638.4" y="42.4" width="44.4" height="7.8" rx="3.9" fill="#f6e7ce"/></g><rect x="0" y="352" width="900" height="118" fill="#e3c08d"/><rect x="0" y="352" width="900" height="3" fill="#e6c596"/><text x="44" y="62" font-family="Verdana,DejaVu Sans,sans-serif" font-size="30" font-weight="700" letter-spacing="0.6" fill="#f6e7ce" text-anchor="start">zaeux</text><text x="46" y="88" font-family="Verdana,DejaVu Sans,sans-serif" font-size="14" font-weight="700" letter-spacing="0.6" fill="#e3c08d" text-anchor="start">ROUTES</text><rect x="44" y="106" width="74" height="4" rx="2" fill="#f5c95c"/><text x="132" y="112" font-family="Verdana,DejaVu Sans,sans-serif" font-size="13" font-weight="700" letter-spacing="0.6" fill="#e3c08d" text-anchor="start">22 endpoints</text><rect x="120" y="340" width="660" height="16" rx="8" fill="#b79f80"/><path d="M132,278 L216,278 L230,264 L146,264 Z" fill="#e68c74" stroke="#e2725b" stroke-width="5" stroke-linejoin="round"/><path d="M216,278 L230,264 L230,326 L216,340 Z" fill="#c06658" stroke="#e2725b" stroke-width="5" stroke-linejoin="round"/><rect x="132" y="278" width="84" height="62" rx="10" fill="#e2725b"/><text x="174" y="382" font-family="Verdana,DejaVu Sans,sans-serif" font-size="11" font-weight="700" letter-spacing="0.6" fill="#a8543c" text-anchor="middle">/about</text><path d="M260,264 L344,264 L358,250 L274,250 Z" fill="#e7c99b" stroke="#e3c08d" stroke-width="5" stroke-linejoin="round"/><path d="M344,264 L358,250 L358,312 L344,326 Z" fill="#c1a682" stroke="#e3c08d" stroke-width="5" stroke-linejoin="round"/><rect x="260" y="264" width="84" height="62" rx="10" fill="#e3c08d"/><text x="302" y="382" font-family="Verdana,DejaVu Sans,sans-serif" font-size="11" font-weight="700" letter-spacing="0.6" fill="#a8543c" text-anchor="middle">/api/checkout</text><rect x="222" y="346" width="32" height="5" rx="3" fill="#f5c95c"/><path d="M388,278 L472,278 L486,264 L402,264 Z" fill="#e68c74" stroke="#e2725b" stroke-width="5" stroke-linejoin="round"/><path d="M472,278 L486,264 L486,326 L472,340 Z" fill="#c06658" stroke="#e2725b" stroke-width="5" stroke-linejoin="round"/><rect x="388" y="278" width="84" height="62" rx="10" fill="#e2725b"/><text x="430" y="382" font-family="Verdana,DejaVu Sans,sans-serif" font-size="11" font-weight="700" letter-spacing="0.6" fill="#a8543c" text-anchor="middle">/api/waitlist</text><rect x="350" y="346" width="32" height="5" rx="3" fill="#f5c95c"/><path d="M516,264 L600,264 L614,250 L530,250 Z" fill="#e7c99b" stroke="#e3c08d" stroke-width="5" stroke-linejoin="round"/><path d="M600,264 L614,250 L614,312 L600,326 Z" fill="#c1a682" stroke="#e3c08d" stroke-width="5" stroke-linejoin="round"/><rect x="516" y="264" width="84" height="62" rx="10" fill="#e3c08d"/><text x="558" y="382" font-family="Verdana,DejaVu Sans,sans-serif" font-size="11" font-weight="700" letter-spacing="0.6" fill="#a8543c" text-anchor="middle">/contact</text><rect x="478" y="346" width="32" height="5" rx="3" fill="#f5c95c"/><path d="M644,278 L728,278 L742,264 L658,264 Z" fill="#e68c74" stroke="#e2725b" stroke-width="5" stroke-linejoin="round"/><path d="M728,278 L742,264 L742,326 L728,340 Z" fill="#c06658" stroke="#e2725b" stroke-width="5" stroke-linejoin="round"/><rect x="644" y="278" width="84" height="62" rx="10" fill="#e2725b"/><text x="686" y="382" font-family="Verdana,DejaVu Sans,sans-serif" font-size="11" font-weight="700" letter-spacing="0.6" fill="#a8543c" text-anchor="middle">/core</text><rect x="606" y="346" width="32" height="5" rx="3" fill="#f5c95c"/><path d="M742,352 L742,269.04 A59,59 0 0 1 860,269.04 L860,352 Z M767.96,348 L767.96,266.4 A33.04,33.04 0 0 1 834.04,266.4 L834.04,348 Z" fill="#e3c08d" fill-rule="evenodd" stroke="#e3c08d" stroke-width="5" stroke-linejoin="round"/><path d="M742,352 L742,269.04 A59,59 0 0 1 860,269.04 L860,352 Z" fill="none" stroke="#e8c99d" stroke-width="7" stroke-linecap="round" opacity="0.85"/><rect x="747.9" y="269.04" width="5.9" height="82.96" fill="#c7ab84"/><rect x="850.22" y="335.36" width="7.56" height="16.64" rx="2.1" fill="#ac5b43"/><path d="M854,291.68 Q833,317.01 833,327.5 Q833,335.36 833,335.36 L875,335.36 Q875,335.36 875,327.5 Q875,317.01 854,291.68 Z" fill="#74a6a0"/><path d="M854,262.56 Q838.46,287.89 838.46,298.38 Q838.46,306.24 838.46,306.24 L869.54,306.24 Q869.54,306.24 869.54,298.38 Q869.54,287.89 854,262.56 Z" fill="#649f9a"/><path d="M854,233.44 Q843.92,258.77 843.92,269.26 Q843.92,277.12 843.92,277.12 L864.08,277.12 Q864.08,277.12 864.08,269.26 Q864.08,258.77 854,233.44 Z" fill="#589694"/><rect x="0" y="418" width="900" height="52" rx="0" fill="#a65c56" opacity="0.94"/><text x="44" y="460" font-family="Verdana,DejaVu Sans,sans-serif" font-size="15" font-weight="700" letter-spacing="0.6" fill="#f6e7ce" text-anchor="start">DUNG30N5 x NOAERTH  /  Web Application</text><text x="856" y="460" font-family="Verdana,DejaVu Sans,sans-serif" font-size="13" font-weight="700" letter-spacing="0.6" fill="#f6e7ce" text-anchor="end">PROTOTYPE  -  evidence E3</text></svg>