<svg xmlns="http://www.w3.org/2000/svg" viewBox="0 0 1200 560" width="1200" height="560" role="img" aria-label="zaeux hero">
<title>zaeux hero</title>
<rect width="1200" height="560" fill="#141821"/>
<defs><linearGradient id="gh" x1="0" y1="0" x2="1" y2="1"><stop offset="0%" stop-color="#ffb703"/><stop offset="100%" stop-color="#8d99ae"/></linearGradient></defs><rect x="96.00" y="150.00" width="88.00" height="72.00" rx="8.00" fill="#ffb703" opacity="0.49"/><rect x="196.00" y="150.00" width="88.00" height="72.00" rx="8.00" fill="#8d99ae" opacity="0.38"/><rect x="296.00" y="150.00" width="88.00" height="72.00" rx="8.00" fill="#06d6a0" opacity="0.47"/><rect x="396.00" y="150.00" width="88.00" height="72.00" rx="8.00" fill="#ffb703" opacity="0.55"/><rect x="496.00" y="150.00" width="88.00" height="72.00" rx="8.00" fill="#8d99ae" opacity="0.47"/><rect x="596.00" y="150.00" width="88.00" height="72.00" rx="8.00" fill="#06d6a0" opacity="0.46"/><rect x="696.00" y="150.00" width="88.00" height="72.00" rx="8.00" fill="#ffb703" opacity="0.59"/><rect x="796.00" y="150.00" width="88.00" height="72.00" rx="8.00" fill="#8d99ae" opacity="0.56"/><rect x="896.00" y="150.00" width="88.00" height="72.00" rx="8.00" fill="#06d6a0" opacity="0.38"/><rect x="996.00" y="150.00" width="88.00" height="72.00" rx="8.00" fill="#ffb703" opacity="0.60"/><rect x="96.00" y="234.00" width="88.00" height="72.00" rx="8.00" fill="#8d99ae" opacity="0.47"/><rect x="196.00" y="234.00" width="88.00" height="72.00" rx="8.00" fill="#06d6a0" opacity="0.81"/><rect x="296.00" y="234.00" width="88.00" height="72.00" rx="8.00" fill="#ffb703" opacity="0.51"/><rect x="396.00" y="234.00" width="88.00" height="72.00" rx="8.00" fill="#8d99ae" opacity="0.39"/><rect x="496.00" y="234.00" width="88.00" height="72.00" rx="8.00" fill="#06d6a0" opacity="0.40"/><rect x="596.00" y="234.00" width="88.00" height="72.00" rx="8.00" fill="#ffb703" opacity="0.84"/><rect x="696.00" y="234.00" width="88.00" height="72.00" rx="8.00" fill="#8d99ae" opacity="0.63"/><rect x="796.00" y="234.00" width="88.00" height="72.00" rx="8.00" fill="#06d6a0" opacity="0.70"/><rect x="896.00" y="234.00" width="88.00" height="72.00" rx="8.00" fill="#ffb703" opacity="0.55"/><rect x="996.00" y="234.00" width="88.00" height="72.00" rx="8.00" fill="#8d99ae" opacity="0.52"/><rect x="96.00" y="318.00" width="88.00" height="72.00" rx="8.00" fill="#06d6a0" opacity="0.74"/><rect x="196.00" y="318.00" width="88.00" height="72.00" rx="8.00" fill="#ffb703" opacity="0.81"/><rect x="296.00" y="318.00" width="88.00" height="72.00" rx="8.00" fill="#8d99ae" opacity="0.72"/><rect x="396.00" y="318.00" width="88.00" height="72.00" rx="8.00" fill="#06d6a0" opacity="0.43"/><rect x="496.00" y="318.00" width="88.00" height="72.00" rx="8.00" fill="#ffb703" opacity="0.93"/><rect x="596.00" y="318.00" width="88.00" height="72.00" rx="8.00" fill="#8d99ae" opacity="0.60"/><rect x="696.00" y="318.00" width="88.00" height="72.00" rx="8.00" fill="#06d6a0" opacity="0.64"/><rect x="796.00" y="318.00" width="88.00" height="72.00" rx="8.00" fill="#ffb703" opacity="0.78"/><rect x="896.00" y="318.00" width="88.00" height="72.00" rx="8.00" fill="#8d99ae" opacity="0.37"/><rect x="996.00" y="318.00" width="88.00" height="72.00" rx="8.00" fill="#06d6a0" opacity="0.76"/><rect x="96.00" y="402.00" width="88.00" height="72.00" rx="8.00" fill="#ffb703" opacity="0.40"/><rect x="196.00" y="402.00" width="88.00" height="72.00" rx="8.00" fill="#8d99ae" opacity="0.90"/><rect x="296.00" y="402.00" width="88.00" height="72.00" rx="8.00" fill="#06d6a0" opacity="0.46"/><rect x="396.00" y="402.00" width="88.00" height="72.00" rx="8.00" fill="#ffb703" opacity="0.50"/><rect x="496.00" y="402.00" width="88.00" height="72.00" rx="8.00" fill="#8d99ae" opacity="0.74"/><rect x="596.00" y="402.00" width="88.00" height="72.00" rx="8.00" fill="#06d6a0" opacity="0.74"/><rect x="696.00" y="402.00" width="88.00" height="72.00" rx="8.00" fill="#ffb703" opacity="0.55"/><rect x="796.00" y="402.00" width="88.00" height="72.00" rx="8.00" fill="#8d99ae" opacity="0.71"/><rect x="896.00" y="402.00" width="88.00" height="72.00" rx="8.00" fill="#06d6a0" opacity="0.86"/><rect x="996.00" y="402.00" width="88.00" height="72.00" rx="8.00" fill="#ffb703" opacity="0.60"/><rect x="96.00" y="486.00" width="88.00" height="72.00" rx="8.00" fill="#8d99ae" opacity="0.72"/><rect x="196.00" y="486.00" width="88.00" height="72.00" rx="8.00" fill="#06d6a0" opacity="0.70"/><rect x="296.00" y="486.00" width="88.00" height="72.00" rx="8.00" fill="#ffb703" opacity="0.43"/><rect x="396.00" y="486.00" width="88.00" height="72.00" rx="8.00" fill="#8d99ae" opacity="0.95"/><rect x="496.00" y="486.00" width="88.00" height="72.00" rx="8.00" fill="#06d6a0" opacity="0.69"/><rect x="596.00" y="486.00" width="88.00" height="72.00" rx="8.00" fill="#ffb703" opacity="0.57"/><rect x="696.00" y="486.00" width="88.00" height="72.00" rx="8.00" fill="#8d99ae" opacity="0.57"/><rect x="796.00" y="486.00" width="88.00" height="72.00" rx="8.00" fill="#06d6a0" opacity="0.48"/><rect x="896.00" y="486.00" width="88.00" height="72.00" rx="8.00" fill="#ffb703" opacity="0.84"/><rect x="996.00" y="486.00" width="88.00" height="72.00" rx="8.00" fill="#8d99ae" opacity="0.67"/><g><rect x="96.00" y="150.00" width="88.00" height="72.00" rx="8.00" fill="#06d6a0" opacity="0.80"/><animate attributeName="opacity" values="0.25;1.0;0.25" dur="5.6000000000000005s" begin="0.0s" repeatCount="indefinite" /></g><g><rect x="196.00" y="150.00" width="88.00" height="72.00" rx="8.00" fill="#06d6a0" opacity="0.80"/><animate attributeName="opacity" values="0.25;1.0;0.25" dur="5.6000000000000005s" begin="0.32s" repeatCount="indefinite" /></g><g><rect x="296.00" y="150.00" width="88.00" height="72.00" rx="8.00" fill="#06d6a0" opacity="0.80"/><animate attributeName="opacity" values="0.25;1.0;0.25" dur="5.6000000000000005s" begin="0.64s" repeatCount="indefinite" /></g><g><rect x="396.00" y="150.00" width="88.00" height="72.00" rx="8.00" fill="#06d6a0" opacity="0.80"/><animate attributeName="opacity" values="0.25;1.0;0.25" dur="5.6000000000000005s" begin="0.96s" repeatCount="indefinite" /></g><g><rect x="496.00" y="150.00" width="88.00" height="72.00" rx="8.00" fill="#06d6a0" opacity="0.80"/><animate attributeName="opacity" values="0.25;1.0;0.25" dur="5.6000000000000005s" begin="1.28s" repeatCount="indefinite" /></g><g><rect x="596.00" y="150.00" width="88.00" height="72.00" rx="8.00" fill="#06d6a0" opacity="0.80"/><animate attributeName="opacity" values="0.25;1.0;0.25" dur="5.6000000000000005s" begin="1.6s" repeatCount="indefinite" /></g><g><rect x="696.00" y="150.00" width="88.00" height="72.00" rx="8.00" fill="#06d6a0" opacity="0.80"/><animate attributeName="opacity" values="0.25;1.0;0.25" dur="5.6000000000000005s" begin="1.92s" repeatCount="indefinite" /></g><g><rect x="796.00" y="150.00" width="88.00" height="72.00" rx="8.00" fill="#06d6a0" opacity="0.80"/><animate attributeName="opacity" values="0.25;1.0;0.25" dur="5.6000000000000005s" begin="2.24s" repeatCount="indefinite" /></g><g><rect x="896.00" y="150.00" width="88.00" height="72.00" rx="8.00" fill="#06d6a0" opacity="0.80"/><animate attributeName="opacity" values="0.25;1.0;0.25" dur="5.6000000000000005s" begin="2.56s" repeatCount="indefinite" /></g><g><rect x="996.00" y="150.00" width="88.00" height="72.00" rx="8.00" fill="#06d6a0" opacity="0.80"/><animate attributeName="opacity" values="0.25;1.0;0.25" dur="5.6000000000000005s" begin="2.88s" repeatCount="indefinite" /></g>
</svg>