<svg xmlns="http://www.w3.org/2000/svg" viewBox="0 0 1200 560" width="1200" height="560" role="img" aria-label="zaeux workflow">
<title>zaeux workflow</title>
<rect width="1200" height="560" fill="#fef8ec"/>
<defs><linearGradient id="gk" x1="0" y1="0" x2="1" y2="1"><stop offset="0%" stop-color="#c78f02"/><stop offset="100%" stop-color="#6e7788"/></linearGradient></defs><circle cx="600.00" cy="280.00" r="92.00" fill="none" stroke="rgba(199,143,2,0.500)" stroke-width="1.30" opacity="1.00" stroke-dasharray="6 12"/><g><circle cx="600.00" cy="280.00" r="92.00" fill="none" stroke="#05a77d" stroke-width="2.60" opacity="0.00"/><animate attributeName="opacity" values="0;0.85;0" dur="17.2s" begin="0.0s" repeatCount="indefinite" /></g><circle cx="600.00" cy="280.00" r="154.00" fill="none" stroke="rgba(199,143,2,0.410)" stroke-width="1.30" opacity="1.00" stroke-dasharray="6 12"/><g><circle cx="600.00" cy="280.00" r="154.00" fill="none" stroke="#05a77d" stroke-width="2.60" opacity="0.00"/><animate attributeName="opacity" values="0;0.85;0" dur="17.2s" begin="0.6s" repeatCount="indefinite" /></g><circle cx="600.00" cy="280.00" r="216.00" fill="none" stroke="rgba(199,143,2,0.320)" stroke-width="1.30" opacity="1.00" stroke-dasharray="6 12"/><g><circle cx="600.00" cy="280.00" r="216.00" fill="none" stroke="#05a77d" stroke-width="2.60" opacity="0.00"/><animate attributeName="opacity" values="0;0.85;0" dur="17.2s" begin="1.2s" repeatCount="indefinite" /></g><circle cx="600.00" cy="280.00" r="278.00" fill="none" stroke="rgba(199,143,2,0.230)" stroke-width="1.30" opacity="1.00" stroke-dasharray="6 12"/><g><circle cx="600.00" cy="280.00" r="278.00" fill="none" stroke="#05a77d" stroke-width="2.60" opacity="0.00"/><animate attributeName="opacity" values="0;0.85;0" dur="17.2s" begin="1.7999999999999998s" repeatCount="indefinite" /></g><polygon points="462.46,307.00 507.49,333.00 507.49,281.00 462.46,255.00" fill="#036148" opacity="0.95"/><polygon points="417.42,333.00 462.46,359.00 462.46,307.00 417.42,281.00" fill="#565d6a" opacity="0.95"/><polygon points="462.46,255.00 507.49,281.00 462.46,307.00 417.42,281.00" fill="#c78f02" opacity="0.95"/><text x="600" y="126" font-family="ui-monospace,Menlo,monospace" font-size="15" fill="rgba(37,40,49,0.820)" text-anchor="middle">app</text><g><polygon points="600.00,26.00 640.00,66.00 600.00,106.00 560.00,66.00" fill="#05a77d" opacity="0.80" stroke="#6e7788" stroke-width="2"/><animate attributeName="opacity" values="0.25;1.0;0.25" dur="17.2s" begin="0.0s" repeatCount="indefinite" /></g><polygon points="510.66,482.70 555.69,508.70 555.69,456.70 510.66,430.70" fill="#036148" opacity="0.95"/><polygon points="465.62,508.70 510.66,534.70 510.66,482.70 465.62,456.70" fill="#565d6a" opacity="0.95"/><polygon points="510.66,430.70 555.69,456.70 510.66,482.70 465.62,456.70" fill="#6e7788" opacity="0.95"/><text x="804" y="274" font-family="ui-monospace,Menlo,monospace" font-size="15" fill="rgba(37,40,49,0.820)" text-anchor="middle">components</text><g><polygon points="803.53,173.87 843.53,213.87 803.53,253.87 763.53,213.87" fill="#05a77d" opacity="0.80" stroke="#6e7788" stroke-width="2"/><animate attributeName="opacity" values="0.25;1.0;0.25" dur="17.2s" begin="3.44s" repeatCount="indefinite" /></g><polygon points="236.13,563.46 281.16,589.46 281.16,537.46 236.13,511.46" fill="#036148" opacity="0.95"/><polygon points="191.09,589.46 236.13,615.46 236.13,563.46 191.09,537.46" fill="#565d6a" opacity="0.95"/><polygon points="236.13,511.46 281.16,537.46 236.13,563.46 191.09,537.46" fill="#05a77d" opacity="0.95"/><text x="726" y="513" font-family="ui-monospace,Menlo,monospace" font-size="15" fill="rgba(37,40,49,0.820)" text-anchor="middle">lib</text><g><polygon points="725.79,413.13 765.79,453.13 725.79,493.13 685.79,453.13" fill="#05a77d" opacity="0.80" stroke="#6e7788" stroke-width="2"/><animate attributeName="opacity" values="0.25;1.0;0.25" dur="17.2s" begin="6.88s" repeatCount="indefinite" /></g><polygon points="18.26,437.67 63.29,463.67 63.29,411.67 18.26,385.67" fill="#036148" opacity="0.95"/><polygon points="-26.77,463.67 18.26,489.67 18.26,437.67 -26.77,411.67" fill="#565d6a" opacity="0.95"/><polygon points="18.26,385.67 63.29,411.67 18.26,437.67 -26.77,411.67" fill="#c78f02" opacity="0.95"/><text x="474" y="513" font-family="ui-monospace,Menlo,monospace" font-size="15" fill="rgba(37,40,49,0.820)" text-anchor="middle">src</text><g><polygon points="474.21,413.13 514.21,453.13 474.21,493.13 434.21,453.13" fill="#05a77d" opacity="0.80" stroke="#6e7788" stroke-width="2"/><animate attributeName="opacity" values="0.25;1.0;0.25" dur="17.2s" begin="10.32s" repeatCount="indefinite" /></g><polygon points="158.14,279.17 203.17,305.17 203.17,253.17 158.14,227.17" fill="#036148" opacity="0.95"/><polygon points="113.11,305.17 158.14,331.17 158.14,279.17 113.11,253.17" fill="#565d6a" opacity="0.95"/><polygon points="158.14,227.17 203.17,253.17 158.14,279.17 113.11,253.17" fill="#6e7788" opacity="0.95"/><text x="396" y="274" font-family="ui-monospace,Menlo,monospace" font-size="15" fill="rgba(37,40,49,0.820)" text-anchor="middle">types</text><g><polygon points="396.47,173.87 436.47,213.87 396.47,253.87 356.47,213.87" fill="#05a77d" opacity="0.80" stroke="#6e7788" stroke-width="2"/><animate attributeName="opacity" values="0.25;1.0;0.25" dur="17.2s" begin="13.76s" repeatCount="indefinite" /></g><ellipse cx="600.00" cy="206.00" rx="22.20" ry="40.70" fill="rgba(110,119,136,0.500)" opacity="1.00" transform="rotate(0.0 600.00 206.00)"/><ellipse cx="652.33" cy="227.67" rx="22.20" ry="40.70" fill="rgba(199,143,2,0.450)" opacity="1.00" transform="rotate(45.0 652.33 227.67)"/><ellipse cx="674.00" cy="280.00" rx="22.20" ry="40.70" fill="rgba(110,119,136,0.500)" opacity="1.00" transform="rotate(90.0 674.00 280.00)"/><ellipse cx="652.33" cy="332.33" rx="22.20" ry="40.70" fill="rgba(199,143,2,0.450)" opacity="1.00" transform="rotate(135.0 652.33 332.33)"/><ellipse cx="600.00" cy="354.00" rx="22.20" ry="40.70" fill="rgba(110,119,136,0.500)" opacity="1.00" transform="rotate(180.0 600.00 354.00)"/><ellipse cx="547.67" cy="332.33" rx="22.20" ry="40.70" fill="rgba(199,143,2,0.450)" opacity="1.00" transform="rotate(225.0 547.67 332.33)"/><ellipse cx="526.00" cy="280.00" rx="22.20" ry="40.70" fill="rgba(110,119,136,0.500)" opacity="1.00" transform="rotate(270.0 526.00 280.00)"/><ellipse cx="547.67" cy="227.67" rx="22.20" ry="40.70" fill="rgba(199,143,2,0.450)" opacity="1.00" transform="rotate(315.0 547.67 227.67)"/><circle cx="600.00" cy="280.00" r="31.08" fill="none" stroke="rgba(110,119,136,0.500)" stroke-width="2.59" opacity="0.70"/><circle cx="600.00" cy="280.00" r="11.84" fill="rgba(199,143,2,0.450)" opacity="1.00"/><rect x="504.00" y="276.00" width="192.00" height="3.00" rx="2.00" fill="rgba(37,40,49,0.200)" opacity="1.00"/><text x="600" y="306" font-family="ui-monospace,Menlo,monospace" font-size="14" fill="rgba(37,40,49,0.600)" text-anchor="middle">public-site/index.html boots 5 module(s)</text>
</svg>